<svg width="964" height="894" fill="none" xmlns="http://www.w3.org/2000/svg"><mask id="a" fill="#fff"><path d="M127.215 354.432c-53.95-43.131-62.72-121.832-19.589-175.783 43.132-53.95 121.832-62.721 175.783-19.589 53.95 43.132 62.721 121.833 19.589 175.783-43.132 53.951-121.833 62.721-175.783 19.589Z"/><path d="M147.3 554.63C32.655 462.975 14.455 295.19 106.65 179.87c92.194-115.319 259.87-134.503 374.515-42.848 114.645 91.655 132.845 259.441 40.65 374.761-92.194 115.319-259.87 134.502-374.515 42.847Z"/><path d="M163.461 699.651C4.307 572.413-21.565 340.245 105.673 181.091 232.912 21.937 465.079-3.935 624.233 123.304c159.154 127.238 185.027 359.406 57.788 518.56-127.238 159.154-359.406 185.026-518.56 57.787Z"/><path d="M181.091 857.856c-207.71-166.057-241.475-469.055-75.418-676.765 166.058-207.71 469.056-241.475 676.765-75.418 207.71 166.058 241.472 469.056 75.418 676.765-166.057 207.71-469.055 241.472-676.765 75.418Z"/></mask><path d="M127.839 353.651C74.32 310.864 65.62 232.793 108.407 179.274l-1.562-1.249c-43.477 54.382-34.636 133.712 19.745 177.188l1.249-1.562Zm-19.432-174.377c42.787-53.519 120.858-62.22 174.377-19.433l1.249-1.562c-54.382-43.477-133.712-34.636-177.188 19.746l1.562 1.249Zm174.377-19.433c53.52 42.787 62.22 120.859 19.433 174.378l1.562 1.249c43.477-54.382 34.636-133.712-19.746-177.189l-1.249 1.562Zm19.433 174.378c-42.787 53.519-120.858 62.219-174.378 19.432l-1.249 1.562c54.382 43.477 133.712 34.637 177.189-19.745l-1.562-1.249Zm-154.292 219.63c-114.21-91.306-132.347-258.462-40.494-373.354l-1.562-1.249c-92.536 115.746-74.274 284.162 40.807 376.165l1.249-1.562Zm-40.494-373.354c91.852-114.892 258.9-133.998 373.109-42.691l1.249-1.563c-115.08-92.003-283.385-72.741-375.92 43.005l1.562 1.249Zm373.109-42.691c114.21 91.306 132.347 258.462 40.494 373.354l1.562 1.249c92.536-115.746 74.274-284.162-40.807-376.166l-1.249 1.563Zm40.494 373.354c-91.852 114.892-258.9 133.998-373.109 42.691l-1.249 1.562c115.08 92.004 283.385 72.742 375.92-43.004l-1.562-1.249ZM164.086 698.87C5.363 571.976-20.439 340.439 106.454 181.716l-1.562-1.249C-22.691 340.052 3.252 572.849 162.837 700.432l1.249-1.562Zm-57.632-517.154C233.348 22.993 464.886-2.809 623.609 124.085l1.249-1.562C465.272-5.061 232.476 20.882 104.892 180.467l1.562 1.249Zm517.155-57.631c158.723 126.894 184.525 358.431 57.631 517.154l1.562 1.249c127.584-159.585 101.641-392.382-57.944-519.965l-1.249 1.562Zm57.631 517.154C554.346 799.962 322.808 825.764 164.086 698.87l-1.249 1.562c159.585 127.584 392.382 101.641 519.965-57.944l-1.562-1.249ZM181.716 857.075C-25.562 691.363-59.258 388.994 106.454 181.716l-1.562-1.249C-61.51 388.608-27.674 692.235 180.467 858.637l1.249-1.562Zm-75.262-675.359c165.713-207.278 468.082-240.974 675.36-75.262l1.249-1.562C574.922-61.51 271.295-27.674 104.892 180.467l1.562 1.249Zm675.36-75.262c207.278 165.713 240.976 468.082 75.261 675.36l1.562 1.249c166.403-208.141 132.566-511.768-75.574-678.171l-1.249 1.562Zm75.261 675.36c-165.712 207.278-468.081 240.976-675.359 75.261l-1.249 1.562c208.141 166.403 511.768 132.566 678.17-75.574l-1.562-1.249Z" fill="#EEE" mask="url(#a)"/></svg>