<svg width="422" height="422" fill="none" xmlns="http://www.w3.org/2000/svg"><mask id="a" fill="#fff"><path d="M264.272 366.969c0 30.249-24.522 54.771-54.771 54.771-30.25 0-54.772-24.522-54.772-54.771 0-30.25 24.522-54.772 54.772-54.772 30.249 0 54.771 24.522 54.771 54.772Z"/><path d="M327.259 305.351c0 64.28-52.415 116.389-117.074 116.389-64.658 0-117.074-52.109-117.074-116.389s52.416-116.39 117.074-116.39c64.659 0 117.074 52.11 117.074 116.39Z"/><path d="M372.446 260.164c0 89.236-72.34 161.576-161.576 161.576-89.236 0-161.576-72.34-161.576-161.576 0-89.235 72.34-161.575 161.576-161.575 89.236 0 161.576 72.34 161.576 161.575Z"/><path d="M421.74 210.87c0 116.46-94.41 210.87-210.87 210.87C94.41 421.74 0 327.33 0 210.87 0 94.41 94.41 0 210.87 0c116.46 0 210.87 94.41 210.87 210.87Z"/></mask><path d="M263.272 366.969c0 29.697-24.074 53.771-53.771 53.771v2c30.801 0 55.771-24.97 55.771-55.771h-2Zm-53.771 53.771c-29.697 0-53.772-24.074-53.772-53.771h-2c0 30.801 24.97 55.771 55.772 55.771v-2Zm-53.772-53.771c0-29.698 24.075-53.772 53.772-53.772v-2c-30.802 0-55.772 24.97-55.772 55.772h2Zm53.772-53.772c29.697 0 53.771 24.074 53.771 53.772h2c0-30.802-24.97-55.772-55.771-55.772v2Zm116.758-7.846c0 63.722-51.962 115.389-116.074 115.389v2c65.205 0 118.074-52.551 118.074-117.389h-2ZM210.185 420.74c-64.111 0-116.074-51.667-116.074-115.389h-2c0 64.838 52.869 117.389 118.074 117.389v-2ZM94.111 305.351c0-63.722 51.963-115.39 116.074-115.39v-2c-65.205 0-118.074 52.552-118.074 117.39h2Zm116.074-115.39c64.112 0 116.074 51.668 116.074 115.39h2c0-64.838-52.869-117.39-118.074-117.39v2Zm161.261 70.203c0 88.684-71.892 160.576-160.576 160.576v2c89.788 0 162.576-72.788 162.576-162.576h-2ZM210.87 420.74c-88.683 0-160.576-71.892-160.576-160.576h-2c0 89.788 72.788 162.576 162.576 162.576v-2ZM50.294 260.164c0-88.683 71.893-160.575 160.576-160.575v-2c-89.788 0-162.576 72.787-162.576 162.575h2ZM210.87 99.589c88.684 0 160.576 71.892 160.576 160.575h2c0-89.788-72.788-162.575-162.576-162.575v2ZM420.74 210.87c0 115.908-93.962 209.87-209.87 209.87v2c117.013 0 211.87-94.857 211.87-211.87h-2ZM210.87 420.74C94.962 420.74 1 326.778 1 210.87h-2c0 117.013 94.858 211.87 211.87 211.87v-2ZM1 210.87C1 94.962 94.962 1 210.87 1v-2C93.857-1-1 93.858-1 210.87h2ZM210.87 1c115.908 0 209.87 93.962 209.87 209.87h2C422.74 93.857 327.883-1 210.87-1v2Z" fill="#EEE" mask="url(#a)"/></svg>