<svg width="142" height="19" fill="none" xmlns="http://www.w3.org/2000/svg"><path d="M16.712 15.888V18H.68V1.2h15.24v2.112H3.032v4.536h10.464V9.96H3.032v5.928h13.68Zm6.824-1.368v3.912H19.6V14.52h3.936Zm20.837-5.376c0 1.6-.192 2.96-.576 4.08-.368 1.12-.92 2.032-1.656 2.736-.72.704-1.608 1.224-2.664 1.56-1.056.32-2.264.48-3.624.48H27.14V1.2h7.488c.752 0 1.512.032 2.28.096.784.064 1.536.192 2.256.384.72.192 1.392.464 2.016.816.64.352 1.192.816 1.656 1.392.48.576.856 1.288 1.128 2.136.272.832.408 1.832.408 3v.12Zm-14.88 6.744h5.544c1.456 0 2.632-.152 3.528-.456.896-.304 1.584-.736 2.064-1.296.496-.576.824-1.264.984-2.064.176-.816.264-1.728.264-2.736 0-1.056-.128-1.96-.384-2.712a4.048 4.048 0 0 0-1.248-1.848c-.56-.496-1.296-.856-2.208-1.08-.896-.24-1.992-.368-3.288-.384h-5.256v12.576Zm33.32 0V18h-16.03V1.2h15.24v2.112H49.134v4.536h10.464V9.96H49.134v5.928h13.68Zm19.256-2.52c0 .752-.152 1.448-.456 2.088-.288.624-.776 1.168-1.464 1.632-.688.448-1.6.8-2.736 1.056-1.12.256-2.52.384-4.2.384-1.68 0-3.056-.192-4.128-.576-1.056-.384-1.896-.872-2.52-1.464-.608-.608-1.048-1.272-1.32-1.992a9.07 9.07 0 0 1-.48-2.16h2.544c.096 1.296.64 2.304 1.632 3.024 1.008.704 2.456 1.056 4.344 1.056 1.952 0 3.488-.224 4.608-.672 1.136-.464 1.712-1.2 1.728-2.208.016-1.008-.48-1.728-1.488-2.16-1.008-.432-2.576-.712-4.704-.84-1.408-.048-2.632-.144-3.672-.288-1.024-.144-1.872-.384-2.544-.72-.672-.336-1.168-.792-1.488-1.368-.32-.576-.48-1.328-.48-2.256 0-.688.16-1.344.48-1.968.32-.624.824-1.168 1.512-1.632.704-.48 1.6-.856 2.688-1.128 1.088-.288 2.4-.432 3.936-.432 1.648 0 2.984.184 4.008.552 1.04.368 1.856.84 2.448 1.416.608.576 1.032 1.224 1.272 1.944.256.72.416 1.432.48 2.136h-2.544c-.064-.752-.248-1.376-.552-1.872a3.45 3.45 0 0 0-1.224-1.224c-.496-.304-1.08-.52-1.752-.648a11.82 11.82 0 0 0-2.208-.192c-.912 0-1.744.056-2.496.168-.736.112-1.376.288-1.92.528-.528.224-.944.52-1.248.888-.288.352-.432.784-.432 1.296 0 .496.112.912.336 1.248.24.32.608.584 1.104.792.496.192 1.128.344 1.896.456.784.096 1.704.176 2.76.24 1.472.08 2.728.216 3.768.408 1.04.176 1.896.448 2.568.816.672.368 1.16.848 1.464 1.44.32.592.48 1.336.48 2.232Zm18.114 2.52V18h-15.48v-2.112h6.504V3.312h-6.504V1.2h15.48v2.112h-6.624v12.576h6.624Zm18.946-.36c-.64.864-1.536 1.584-2.688 2.16-1.152.56-2.648.84-4.488.84-1.504 0-2.848-.192-4.032-.576-1.184-.4-2.192-.968-3.024-1.704a7.498 7.498 0 0 1-1.872-2.712c-.432-1.072-.648-2.288-.648-3.648v-.456c0-1.424.216-2.68.648-3.768.432-1.088 1.056-2 1.872-2.736.832-.752 1.84-1.312 3.024-1.68 1.184-.384 2.528-.576 4.032-.576 2.544 0 4.608.52 6.192 1.56 1.6 1.04 2.576 2.608 2.928 4.704h-2.544a4.799 4.799 0 0 0-.816-1.704 4.667 4.667 0 0 0-1.416-1.32 6.498 6.498 0 0 0-1.944-.84c-.72-.208-1.52-.312-2.4-.312-1.168 0-2.2.168-3.096.504-.88.336-1.616.808-2.208 1.416a5.976 5.976 0 0 0-1.344 2.184c-.288.832-.432 1.76-.432 2.784 0 .976.144 1.88.432 2.712a6.012 6.012 0 0 0 1.344 2.16c.592.592 1.328 1.064 2.208 1.416.896.336 1.928.504 3.096.504 1.12 0 2.096-.128 2.928-.384.832-.256 1.536-.608 2.112-1.056a5.244 5.244 0 0 0 1.392-1.536 5.423 5.423 0 0 0 .696-1.872h-9.096v-2.16h11.496v8.544h-2.352v-2.448ZM126.97 2.76V18h-2.352V1.2h4.104l10.896 15.24V1.2h2.328V18h-4.128L126.97 2.76Z" fill="#202020"/></svg>