<svg width="964" height="894" viewBox="0 0 964 894" fill="none" xmlns="http://www.w3.org/2000/svg">
<mask id="path-1-inside-1_2_11" fill="white">
<path d="M127.215 354.432C73.2644 311.301 64.4941 232.6 107.626 178.649C150.758 124.699 229.458 115.928 283.409 159.06C337.359 202.192 346.13 280.893 302.998 334.843C259.866 388.794 181.165 397.564 127.215 354.432Z"/>
<path d="M147.3 554.63C32.6553 462.975 14.4555 295.19 106.65 179.87C198.844 64.5511 366.52 45.3674 481.165 137.022C595.81 228.677 614.01 396.463 521.815 511.783C429.621 627.102 261.945 646.285 147.3 554.63Z"/>
<path d="M163.461 699.651C4.30718 572.413 -21.5653 340.245 105.673 181.091C232.912 21.9374 465.079 -3.93513 624.233 123.304C783.387 250.542 809.26 482.71 682.021 641.864C554.783 801.018 322.615 826.89 163.461 699.651Z"/>
<path d="M181.091 857.856C-26.6181 691.799 -60.3839 388.801 105.673 181.091C271.731 -26.6181 574.729 -60.3839 782.438 105.673C990.148 271.731 1023.91 574.729 857.856 782.438C691.799 990.148 388.801 1023.91 181.091 857.856Z"/>
</mask>
<path d="M127.839 353.651C74.3202 310.864 65.62 232.793 108.407 179.274L106.845 178.025C63.3681 232.407 72.2086 311.737 126.59 355.213L127.839 353.651ZM108.407 179.274C151.194 125.755 229.265 117.054 282.784 159.841L284.033 158.279C229.651 114.802 150.321 123.643 106.845 178.025L108.407 179.274ZM282.784 159.841C336.304 202.628 345.004 280.7 302.217 334.219L303.779 335.468C347.256 281.086 338.415 201.756 284.033 158.279L282.784 159.841ZM302.217 334.219C259.43 387.738 181.359 396.438 127.839 353.651L126.59 355.213C180.972 398.69 260.302 389.85 303.779 335.468L302.217 334.219ZM147.925 553.849C33.7155 462.543 15.5779 295.387 107.431 180.495L105.869 179.246C13.333 294.992 31.5952 463.408 146.676 555.411L147.925 553.849ZM107.431 180.495C199.283 65.6026 366.331 46.4968 480.54 137.804L481.789 136.241C366.709 44.238 198.404 63.4996 105.869 179.246L107.431 180.495ZM480.54 137.804C594.75 229.11 612.887 396.266 521.034 511.158L522.596 512.407C615.132 396.661 596.87 228.245 481.789 136.241L480.54 137.804ZM521.034 511.158C429.182 626.05 262.134 645.156 147.925 553.849L146.676 555.411C261.756 647.415 430.061 628.153 522.596 512.407L521.034 511.158ZM164.086 698.87C5.36298 571.976 -20.4394 340.439 106.454 181.716L104.892 180.467C-22.6912 340.052 3.25136 572.849 162.837 700.432L164.086 698.87ZM106.454 181.716C233.348 22.9932 464.886 -2.80919 623.609 124.085L624.858 122.523C465.272 -5.06106 232.476 20.8815 104.892 180.467L106.454 181.716ZM623.609 124.085C782.332 250.979 808.134 482.516 681.24 641.239L682.802 642.488C810.386 482.903 784.443 250.106 624.858 122.523L623.609 124.085ZM681.24 641.239C554.346 799.962 322.808 825.764 164.086 698.87L162.837 700.432C322.422 828.016 555.219 802.073 682.802 642.488L681.24 641.239ZM181.716 857.075C-25.5623 691.363 -59.258 388.994 106.454 181.716L104.892 180.467C-61.5098 388.608 -27.6739 692.235 180.467 858.637L181.716 857.075ZM106.454 181.716C272.167 -25.5623 574.536 -59.258 781.814 106.454L783.063 104.892C574.922 -61.5098 271.295 -27.6739 104.892 180.467L106.454 181.716ZM781.814 106.454C989.092 272.167 1022.79 574.536 857.075 781.814L858.637 783.063C1025.04 574.922 991.203 271.295 783.063 104.892L781.814 106.454ZM857.075 781.814C691.363 989.092 388.994 1022.79 181.716 857.075L180.467 858.637C388.608 1025.04 692.235 991.203 858.637 783.063L857.075 781.814Z" fill="#EEEEEE" mask="url(#path-1-inside-1_2_11)"/>
</svg>
