<svg width="422" height="422" viewBox="0 0 422 422" fill="none" xmlns="http://www.w3.org/2000/svg">
<mask id="path-1-inside-1_2_10" fill="white">
<path d="M264.272 366.969C264.272 397.218 239.75 421.74 209.501 421.74C179.251 421.74 154.729 397.218 154.729 366.969C154.729 336.719 179.251 312.197 209.501 312.197C239.75 312.197 264.272 336.719 264.272 366.969Z"/>
<path d="M327.259 305.351C327.259 369.631 274.844 421.74 210.185 421.74C145.527 421.74 93.1114 369.631 93.1114 305.351C93.1114 241.071 145.527 188.961 210.185 188.961C274.844 188.961 327.259 241.071 327.259 305.351Z"/>
<path d="M372.446 260.164C372.446 349.4 300.106 421.74 210.87 421.74C121.634 421.74 49.2943 349.4 49.2943 260.164C49.2943 170.929 121.634 98.5886 210.87 98.5886C300.106 98.5886 372.446 170.929 372.446 260.164Z"/>
<path d="M421.74 210.87C421.74 327.33 327.33 421.74 210.87 421.74C94.4097 421.74 0 327.33 0 210.87C0 94.4097 94.4097 0 210.87 0C327.33 0 421.74 94.4097 421.74 210.87Z"/>
</mask>
<path d="M263.272 366.969C263.272 396.666 239.198 420.74 209.501 420.74V422.74C240.302 422.74 265.272 397.77 265.272 366.969H263.272ZM209.501 420.74C179.804 420.74 155.729 396.666 155.729 366.969H153.729C153.729 397.77 178.699 422.74 209.501 422.74V420.74ZM155.729 366.969C155.729 337.271 179.804 313.197 209.501 313.197V311.197C178.699 311.197 153.729 336.167 153.729 366.969H155.729ZM209.501 313.197C239.198 313.197 263.272 337.271 263.272 366.969H265.272C265.272 336.167 240.302 311.197 209.501 311.197V313.197ZM326.259 305.351C326.259 369.073 274.297 420.74 210.185 420.74V422.74C275.39 422.74 328.259 370.189 328.259 305.351H326.259ZM210.185 420.74C146.074 420.74 94.1114 369.073 94.1114 305.351H92.1114C92.1114 370.189 144.98 422.74 210.185 422.74V420.74ZM94.1114 305.351C94.1114 241.629 146.074 189.961 210.185 189.961V187.961C144.98 187.961 92.1114 240.513 92.1114 305.351H94.1114ZM210.185 189.961C274.297 189.961 326.259 241.629 326.259 305.351H328.259C328.259 240.513 275.39 187.961 210.185 187.961V189.961ZM371.446 260.164C371.446 348.848 299.554 420.74 210.87 420.74V422.74C300.658 422.74 373.446 349.952 373.446 260.164H371.446ZM210.87 420.74C122.187 420.74 50.2943 348.848 50.2943 260.164H48.2943C48.2943 349.952 121.082 422.74 210.87 422.74V420.74ZM50.2943 260.164C50.2943 171.481 122.187 99.5886 210.87 99.5886V97.5886C121.082 97.5886 48.2943 170.376 48.2943 260.164H50.2943ZM210.87 99.5886C299.554 99.5886 371.446 171.481 371.446 260.164H373.446C373.446 170.376 300.658 97.5886 210.87 97.5886V99.5886ZM420.74 210.87C420.74 326.778 326.778 420.74 210.87 420.74V422.74C327.883 422.74 422.74 327.883 422.74 210.87H420.74ZM210.87 420.74C94.962 420.74 1 326.778 1 210.87H-1C-1 327.883 93.8575 422.74 210.87 422.74V420.74ZM1 210.87C1 94.962 94.962 1 210.87 1V-1C93.8575 -1 -1 93.8575 -1 210.87H1ZM210.87 1C326.778 1 420.74 94.962 420.74 210.87H422.74C422.74 93.8575 327.883 -1 210.87 -1V1Z" fill="#EEEEEE" mask="url(#path-1-inside-1_2_10)"/>
</svg>
