<svg width="142" height="19" viewBox="0 0 142 19" fill="none" xmlns="http://www.w3.org/2000/svg">
<path d="M16.712 15.888V18H0.68V1.2H15.92V3.312H3.032V7.848H13.496V9.96H3.032V15.888H16.712ZM23.5357 14.52V18.432H19.5997V14.52H23.5357ZM44.3729 9.144C44.3729 10.744 44.1809 12.104 43.7969 13.224C43.4289 14.344 42.8769 15.256 42.1409 15.96C41.4209 16.664 40.5329 17.184 39.4769 17.52C38.4209 17.84 37.2129 18 35.8529 18H27.1409V1.2H34.6289C35.3809 1.2 36.1409 1.232 36.9089 1.296C37.6929 1.36 38.4449 1.488 39.1649 1.68C39.8849 1.872 40.5569 2.144 41.1809 2.496C41.8209 2.848 42.3729 3.312 42.8369 3.888C43.3169 4.464 43.6929 5.176 43.9649 6.024C44.2369 6.856 44.3729 7.856 44.3729 9.024V9.144ZM29.4929 15.888H35.0369C36.4929 15.888 37.6689 15.736 38.5649 15.432C39.4609 15.128 40.1489 14.696 40.6289 14.136C41.1249 13.56 41.4529 12.872 41.6129 12.072C41.7889 11.256 41.8769 10.344 41.8769 9.336C41.8769 8.28 41.7489 7.376 41.4929 6.624C41.2369 5.872 40.8209 5.256 40.2449 4.776C39.6849 4.28 38.9489 3.92 38.0369 3.696C37.1409 3.456 36.0449 3.328 34.7489 3.312H29.4929V15.888ZM62.8136 15.888V18H46.7816V1.2H62.0216V3.312H49.1336V7.848H59.5976V9.96H49.1336V15.888H62.8136ZM82.0693 13.368C82.0693 14.12 81.9173 14.816 81.6133 15.456C81.3253 16.08 80.8373 16.624 80.1493 17.088C79.4613 17.536 78.5493 17.888 77.4133 18.144C76.2933 18.4 74.8933 18.528 73.2133 18.528C71.5333 18.528 70.1573 18.336 69.0853 17.952C68.0293 17.568 67.1893 17.08 66.5653 16.488C65.9573 15.88 65.5173 15.216 65.2453 14.496C64.9893 13.76 64.8293 13.04 64.7653 12.336H67.3092C67.4053 13.632 67.9493 14.64 68.9413 15.36C69.9493 16.064 71.3973 16.416 73.2853 16.416C75.2373 16.416 76.7733 16.192 77.8932 15.744C79.0293 15.28 79.6053 14.544 79.6213 13.536C79.6373 12.528 79.1413 11.808 78.1333 11.376C77.1253 10.944 75.5573 10.664 73.4293 10.536C72.0213 10.488 70.7973 10.392 69.7573 10.248C68.7333 10.104 67.8853 9.864 67.2133 9.528C66.5413 9.192 66.0453 8.736 65.7253 8.16C65.4053 7.584 65.2453 6.832 65.2453 5.904C65.2453 5.216 65.4053 4.56 65.7253 3.936C66.0453 3.312 66.5493 2.768 67.2373 2.304C67.9413 1.824 68.8373 1.448 69.9253 1.176C71.0133 0.887999 72.3253 0.743999 73.8613 0.743999C75.5093 0.743999 76.8453 0.927999 77.8693 1.296C78.9093 1.664 79.7253 2.136 80.3173 2.712C80.9253 3.288 81.3493 3.936 81.5893 4.656C81.8453 5.376 82.0053 6.088 82.0693 6.792H79.5253C79.4613 6.04 79.2773 5.416 78.9733 4.92C78.6693 4.408 78.2613 4 77.7493 3.696C77.2533 3.392 76.6693 3.176 75.9973 3.048C75.3253 2.92 74.5893 2.856 73.7893 2.856C72.8773 2.856 72.0453 2.912 71.2933 3.024C70.5573 3.136 69.9173 3.312 69.3733 3.552C68.8453 3.776 68.4293 4.072 68.1253 4.44C67.8373 4.792 67.6933 5.224 67.6933 5.736C67.6933 6.232 67.8053 6.648 68.0293 6.984C68.2693 7.304 68.6373 7.568 69.1333 7.776C69.6293 7.968 70.2613 8.12 71.0293 8.232C71.8133 8.328 72.7333 8.408 73.7893 8.472C75.2613 8.552 76.5173 8.688 77.5573 8.88C78.5973 9.056 79.4533 9.328 80.1253 9.696C80.7973 10.064 81.2853 10.544 81.5893 11.136C81.9093 11.728 82.0693 12.472 82.0693 13.368ZM100.183 15.888V18H84.7034V15.888H91.2074V3.312H84.7034V1.2H100.183V3.312H93.5594V15.888H100.183ZM119.129 15.528C118.489 16.392 117.593 17.112 116.441 17.688C115.289 18.248 113.793 18.528 111.953 18.528C110.449 18.528 109.105 18.336 107.921 17.952C106.737 17.552 105.729 16.984 104.897 16.248C104.081 15.496 103.457 14.592 103.025 13.536C102.593 12.464 102.377 11.248 102.377 9.888V9.432C102.377 8.008 102.593 6.752 103.025 5.664C103.457 4.576 104.081 3.664 104.897 2.928C105.729 2.176 106.737 1.616 107.921 1.248C109.105 0.863999 110.449 0.671999 111.953 0.671999C114.497 0.671999 116.561 1.192 118.145 2.232C119.745 3.272 120.721 4.84 121.073 6.936H118.529C118.369 6.312 118.097 5.744 117.713 5.232C117.345 4.704 116.873 4.264 116.297 3.912C115.737 3.544 115.089 3.264 114.353 3.072C113.633 2.864 112.833 2.76 111.953 2.76C110.785 2.76 109.753 2.928 108.857 3.264C107.977 3.6 107.241 4.072 106.649 4.68C106.057 5.288 105.609 6.016 105.305 6.864C105.017 7.696 104.873 8.624 104.873 9.648C104.873 10.624 105.017 11.528 105.305 12.36C105.609 13.192 106.057 13.912 106.649 14.52C107.241 15.112 107.977 15.584 108.857 15.936C109.753 16.272 110.785 16.44 111.953 16.44C113.073 16.44 114.049 16.312 114.881 16.056C115.713 15.8 116.417 15.448 116.993 15C117.585 14.552 118.049 14.04 118.385 13.464C118.737 12.872 118.969 12.248 119.081 11.592H109.985V9.432H121.481V17.976H119.129V15.528ZM126.97 2.76V18H124.618V1.2H128.722L139.618 16.44V1.2H141.946V18H137.818L126.97 2.76Z" fill="#202020"/>
</svg>
